<svg width="50" height="50" viewBox="0 0 50 50" fill="none" xmlns="http://www.w3.org/2000/svg">
<path d="M12.1873 35.0212C13.9582 33.69 15.9373 32.6404 18.1248 31.8724C20.3123 31.1044 22.604 30.7204 24.9998 30.7204C27.3957 30.7204 29.6873 31.1044 31.8748 31.8724C34.0623 32.6404 36.0415 33.69 37.8123 35.0212C39.0276 33.6217 39.9738 32.0345 40.6509 30.2596C41.328 28.4846 41.6665 26.5902 41.6665 24.5763C41.6665 20.0365 40.0432 16.1709 36.7967 12.9794C33.5502 9.78787 29.6179 8.19211 24.9998 8.19211C20.3818 8.19211 16.4495 9.78787 13.203 12.9794C9.95643 16.1709 8.33317 20.0365 8.33317 24.5763C8.33317 26.5902 8.67171 28.4846 9.3488 30.2596C10.0259 32.0345 10.9721 33.6217 12.1873 35.0212ZM24.9998 26.6243C22.9512 26.6243 21.2238 25.9331 19.8175 24.5507C18.4113 23.1683 17.7082 21.4701 17.7082 19.4562C17.7082 17.4423 18.4113 15.7442 19.8175 14.3618C21.2238 12.9794 22.9512 12.2882 24.9998 12.2882C27.0484 12.2882 28.7759 12.9794 30.1821 14.3618C31.5884 15.7442 32.2915 17.4423 32.2915 19.4562C32.2915 21.4701 31.5884 23.1683 30.1821 24.5507C28.7759 25.9331 27.0484 26.6243 24.9998 26.6243ZM24.9998 45.0565C22.1179 45.0565 19.4096 44.5189 16.8748 43.4437C14.3401 42.3685 12.1353 40.9093 10.2603 39.0661C8.38525 37.2228 6.90088 35.0553 5.80713 32.5636C4.71338 30.0718 4.1665 27.4094 4.1665 24.5763C4.1665 21.7432 4.71338 19.0808 5.80713 16.589C6.90088 14.0972 8.38525 11.9298 10.2603 10.0865C12.1353 8.24331 14.3401 6.7841 16.8748 5.70889C19.4096 4.63368 22.1179 4.09607 24.9998 4.09607C27.8818 4.09607 30.5901 4.63368 33.1248 5.70889C35.6596 6.7841 37.8644 8.24331 39.7394 10.0865C41.6144 11.9298 43.0988 14.0972 44.1925 16.589C45.2863 19.0808 45.8332 21.7432 45.8332 24.5763C45.8332 27.4094 45.2863 30.0718 44.1925 32.5636C43.0988 35.0553 41.6144 37.2228 39.7394 39.0661C37.8644 40.9093 35.6596 42.3685 33.1248 43.4437C30.5901 44.5189 27.8818 45.0565 24.9998 45.0565Z" fill="#1D1B20"/>
</svg>
